# xmcd CD database file
#
# Track frame offsets:
#	182
#	18485
#	36230
#	43430
#	60630
#	76487
#	98512
#	120517
#	141827
#	156665
#	175410
#	191130
#	209275
#	226880
#
# Disc length: 3228 seconds
#
# Revision: 0
# Processed by: cddbd v1.5.2PL0 Copyright (c) Steve Scherf et al.
# Submitted via: CDex 1.51
#
DISCID=c60c9a0e
DTITLE=Fidgety Feet Jazz Band - Just Back From New Orleans
DYEAR=2005
DGENRE=Jazz
TTITLE0=Big Butter and Egg Man (P.Venable, L.Armstrong)
TTITLE1=The Old Rugged Cross (Trad., Arrgt L.Souques)
TTITLE2=Just A Closer Walk With Thee (Trad., Arrgt L.Souques)
TTITLE3=Orleans Street Shuffle (J.Willis)
TTITLE4=After The Ball (Trad., Arrgt L.Souques)
TTITLE5=Mardi Gras In New-Orleans (R.Bird)
TTITLE6=Savoy Blues (E.kid Ory)
TTITLE7=City Of Million Dreams (R.Burke)
TTITLE8=Exactly Like You (J.McHugh, D.Fields)
TTITLE9=You Always Hurt The One You Love (D.Fisher, A.Roberts)
TTITLE10=Lily Of The Valley (Trad., Arrgt L.Souques)
TTITLE11=Sister Kate (A.Piron, L.Armstrong)
TTITLE12=I Ate Up The Apple Tree (D.Williams)
TTITLE13=I Double Dare You (T.Shand, J.Eaton)
EXTD=YEAR: 2005
EXTT0=
EXTT1=
EXTT2=
EXTT3=
EXTT4=
EXTT5=
EXTT6=
EXTT7=
EXTT8=
EXTT9=
EXTT10=
EXTT11=
EXTT12=
EXTT13=
PLAYORDER=
